<?xml version="1.0" encoding="utf-8"?>
<!-- Generator: Adobe Illustrator 24.1.2, SVG Export Plug-In . SVG Version: 6.00 Build 0)  -->
<svg version="1.1" id="Layer_1" xmlns="http://www.w3.org/2000/svg" xmlns:xlink="http://www.w3.org/1999/xlink" x="0px" y="0px"
	 viewBox="0 0 24 24" style="enable-background:new 0 0 24 24;" xml:space="preserve">
<style type="text/css">
	.st0{fill:#F2F2F2;}
	.st1{fill:#F5F5F5;}
	.st2{fill:url(#SVGID_1_);}
	.st3{fill:#D32F2F;}
	.st4{fill:url(#SVGID_2_);}
	.st5{fill:url(#SVGID_3_);}
	.st6{opacity:0.1;enable-background:new    ;}
	.st7{fill:url(#SVGID_4_);}
	.st8{fill:url(#SVGID_5_);}
	.st9{fill:url(#SVGID_6_);}
	.st10{opacity:0.2;fill:#FFFFFF;enable-background:new    ;}
	.st11{fill:url(#SVGID_7_);}
</style>
<g>
	<path class="st0" d="M22,3H2C0.9,3,0,3.9,0,5v14c0,1.1,0.9,2,2,2h20c1.1,0,2-0.9,2-2V5C24,3.9,23.1,3,22,3z"/>
	<path class="st1" d="M3,21h19c1.1,0,2-0.9,2-2V5.1L3,21z"/>
	
		<linearGradient id="SVGID_1_" gradientUnits="userSpaceOnUse" x1="7.9204" y1="1064.4482" x2="19.1945" y2="1069.7054" gradientTransform="matrix(1 0 0 1 0 -1054)">
		<stop  offset="0" style="stop-color:#FFFFFF;stop-opacity:0.2"/>
		<stop  offset="1" style="stop-color:#FFFFFF;stop-opacity:0"/>
	</linearGradient>
	<polygon class="st2" points="3,21 3.3,21 24,5.4 24,5.1 	"/>
	<path class="st3" d="M0,5.1V19c0,1.1,0.9,2,2,2h1V7.3C1.3,6.1,0.9,5.8,0,5.1z"/>
	<path class="st3" d="M21,7.3V21h1c1.1,0,2-0.9,2-2V5.1L21,7.3z"/>
	
		<linearGradient id="SVGID_2_" gradientUnits="userSpaceOnUse" x1="18.8972" y1="1063.4471" x2="26.639" y2="1071.189" gradientTransform="matrix(1 0 0 1 0 -1054)">
		<stop  offset="0" style="stop-color:#000000;stop-opacity:0.1"/>
		<stop  offset="1" style="stop-color:#000000;stop-opacity:0"/>
	</linearGradient>
	<path class="st4" d="M21,7.3V21h1c1.1,0,2-0.9,2-2V5.1L21,7.3z"/>
	<polygon class="st1" points="21.5,3 2.5,3 12,10.3 	"/>
	<path class="st3" d="M24,5.1V5c0-1.1-0.9-2-2-2h-0.5L12,10.3L2.5,3H2C0.9,3,0,3.9,0,5v0.1l12,9.1L24,5.1z"/>
	
		<linearGradient id="SVGID_3_" gradientUnits="userSpaceOnUse" x1="1.5279" y1="1055.2825" x2="21.4486" y2="1064.5715" gradientTransform="matrix(1 0 0 1 0 -1054)">
		<stop  offset="0" style="stop-color:#FFFFFF;stop-opacity:0.1"/>
		<stop  offset="1" style="stop-color:#FFFFFF;stop-opacity:0"/>
	</linearGradient>
	<path class="st5" d="M24,5.1V5c0-1.1-0.9-2-2-2h-0.5L12,10.3L2.5,3H2C0.9,3,0,3.9,0,5v0.1l12,9.1L24,5.1z"/>
	<path class="st6" d="M12,13.9L0,4.8v0.1V5l12,9.1L24,5l0,0V4.9L12,13.9z"/>
	<path class="st6" d="M22,20.8H2c-1.1,0-2-0.9-2-2V19c0,1.1,0.9,2,2,2h20c1.1,0,2-0.9,2-2v-0.2C24,19.9,23.1,20.8,22,20.8z"/>
	
		<linearGradient id="SVGID_4_" gradientUnits="userSpaceOnUse" x1="23.7406" y1="1058.1406" x2="24.0203" y2="1058.4203" gradientTransform="matrix(1 0 0 1 0 -1054)">
		<stop  offset="0" style="stop-color:#000000;stop-opacity:0.1"/>
		<stop  offset="1" style="stop-color:#000000;stop-opacity:0"/>
	</linearGradient>
	<path class="st7" d="M23.8,4.1L23.8,4.1c0.1,0.1,0.1,0.3,0.2,0.4C23.9,4.4,23.8,4.2,23.8,4.1z"/>
	
		<linearGradient id="SVGID_5_" gradientUnits="userSpaceOnUse" x1="23.8413" y1="1058.6412" x2="24.1005" y2="1058.9005" gradientTransform="matrix(1 0 0 1 0 -1054)">
		<stop  offset="0" style="stop-color:#000000;stop-opacity:0.1"/>
		<stop  offset="1" style="stop-color:#000000;stop-opacity:0"/>
	</linearGradient>
	<path class="st8" d="M23.9,4.5C23.9,4.6,24,4.8,24,5C24,4.8,24,4.7,23.9,4.5z"/>
	
		<linearGradient id="SVGID_6_" gradientUnits="userSpaceOnUse" x1="6.5092" y1="1053.5592" x2="25.389" y2="1072.4391" gradientTransform="matrix(1 0 0 1 0 -1054)">
		<stop  offset="0" style="stop-color:#000000;stop-opacity:0.1"/>
		<stop  offset="1" style="stop-color:#000000;stop-opacity:0"/>
	</linearGradient>
	<path class="st9" d="M0.5,5.5L16,21h6c1.1,0,2-0.9,2-2V5.1l-12,9.1L0.5,5.5z"/>
	<path class="st10" d="M22,3H2C0.9,3,0,3.9,0,5v0.3c0-1.1,0.9-2,2-2h20c1.1,0,2,0.9,2,2V5C24,3.9,23.1,3,22,3z"/>
	
		<linearGradient id="SVGID_7_" gradientUnits="userSpaceOnUse" x1="-0.7068" y1="1060.0747" x2="24.7068" y2="1071.9253" gradientTransform="matrix(1 0 0 1 0 -1054)">
		<stop  offset="0" style="stop-color:#FFFFFF;stop-opacity:0.1"/>
		<stop  offset="1" style="stop-color:#FFFFFF;stop-opacity:0"/>
	</linearGradient>
	<path class="st11" d="M22,3H2C0.9,3,0,3.9,0,5v14c0,1.1,0.9,2,2,2h20c1.1,0,2-0.9,2-2V5C24,3.9,23.1,3,22,3z"/>
</g>
</svg>
